<svg width="28" height="28" viewBox="0 0 28 28" fill="none" xmlns="http://www.w3.org/2000/svg">
<path d="M14 7.91875V11.5609M14.0219 3.0625C9.99686 3.0625 6.73748 6.32188 6.73748 10.3469V12.6438C6.73748 13.3875 6.43123 14.5031 6.04842 15.1375L4.65935 17.4563C3.80623 18.8891 4.39685 20.4859 5.97185 21.0109C11.2014 22.75 16.8533 22.75 22.0828 21.0109C22.4279 20.8958 22.7427 20.7047 23.0039 20.4516C23.2652 20.1984 23.4663 19.8899 23.5923 19.5486C23.7183 19.2074 23.766 18.8422 23.7319 18.48C23.6978 18.1179 23.5828 17.768 23.3953 17.4563L22.0062 15.1375C21.6234 14.5031 21.3172 13.3766 21.3172 12.6438V10.3469C21.3062 6.34375 18.025 3.0625 14.0219 3.0625Z" stroke="black" stroke-width="1.5" stroke-miterlimit="10" stroke-linecap="round"/>
<path d="M17.6422 21.4594C17.6422 23.4609 16.0015 25.1015 14 25.1015C13.0047 25.1015 12.0859 24.6859 11.4297 24.0297C10.7734 23.3734 10.3578 22.4547 10.3578 21.4594" stroke="black" stroke-width="1.5" stroke-miterlimit="10"/>
</svg>
