<svg width="22" height="20" viewBox="0 0 22 20" fill="none" xmlns="http://www.w3.org/2000/svg">
<path d="M11.53 18.42H5.21C2.05 18.42 1 16.32 1 14.21V5.78999C1 2.62999 2.05 1.57999 5.21 1.57999H11.53C14.69 1.57999 15.74 2.62999 15.74 5.78999V14.21C15.74 17.37 14.68 18.42 11.53 18.42V18.42Z" stroke="#3B3D62" stroke-width="1.5" stroke-linecap="round" stroke-linejoin="round"/>
<path d="M18.52 15.1L15.74 13.15V6.84001L18.52 4.89001C19.88 3.94001 21 4.52001 21 6.19001V13.81C21 15.48 19.88 16.06 18.52 15.1V15.1ZM10.5 9.00001C10.8978 9.00001 11.2794 8.84197 11.5607 8.56067C11.842 8.27937 12 7.89783 12 7.50001C12 7.10218 11.842 6.72065 11.5607 6.43935C11.2794 6.15804 10.8978 6.00001 10.5 6.00001C10.1022 6.00001 9.72064 6.15804 9.43934 6.43935C9.15804 6.72065 9 7.10218 9 7.50001C9 7.89783 9.15804 8.27937 9.43934 8.56067C9.72064 8.84197 10.1022 9.00001 10.5 9.00001Z" stroke="#3B3D62" stroke-width="1.5" stroke-linecap="round" stroke-linejoin="round"/>
</svg>
