<svg width="18" height="22" viewBox="0 0 18 22" fill="none" xmlns="http://www.w3.org/2000/svg">
<path d="M11 4.5H7M17 6V16C17 20 16 21 12 21H6C2 21 1 20 1 16V6C1 2 2 1 6 1H12C16 1 17 2 17 6Z" stroke="black" stroke-width="1.5" stroke-linecap="round" stroke-linejoin="round"/>
<path d="M9.00001 18.1C9.4111 18.1 9.80535 17.9367 10.096 17.646C10.3867 17.3553 10.55 16.9611 10.55 16.55C10.55 16.1389 10.3867 15.7447 10.096 15.454C9.80535 15.1633 9.4111 15 9.00001 15C8.58893 15 8.19468 15.1633 7.904 15.454C7.61332 15.7447 7.45001 16.1389 7.45001 16.55C7.45001 16.9611 7.61332 17.3553 7.904 17.646C8.19468 17.9367 8.58893 18.1 9.00001 18.1V18.1Z" stroke="black" stroke-width="1.5" stroke-linecap="round" stroke-linejoin="round"/>
</svg>
