<svg width="91" height="88" viewBox="0 0 91 88" fill="none" xmlns="http://www.w3.org/2000/svg">
<circle cx="76.0931" cy="39.4019" r="10.5416" transform="rotate(35.2886 76.0931 39.4019)" fill="#E0ECFA"/>
<ellipse cx="60.34" cy="27.4456" rx="5.92968" ry="6.58853" transform="rotate(35.2886 60.34 27.4456)" fill="#E0ECFA"/>
<ellipse cx="45.6995" cy="24.752" rx="4.9414" ry="5.60025" transform="rotate(35.2886 45.6995 24.752)" fill="#E0ECFA"/>
<ellipse cx="33.603" cy="25.8768" rx="4.28254" ry="4.9414" transform="rotate(35.2886 33.603 25.8768)" fill="#E0ECFA"/>
<ellipse cx="23.0537" cy="30.5182" rx="3.62369" ry="4.28254" transform="rotate(35.2886 23.0537 30.5182)" fill="#E0ECFA"/>
<path d="M35.2865 34.3328C53.2145 28.6178 67.6618 46.753 68.6958 55.5564C69.7297 64.3599 66.2587 67.5535 61.981 70.1762C59.4994 71.6977 52.9664 75.5001 48.2958 75.8268C43.6252 76.1534 34.8689 77.4629 35.7355 93.5739C36.6021 109.685 27.2761 115.031 22.5048 115.69C18.9057 115.833 10.0915 114.411 3.6282 107.576C-4.45098 99.0333 -1.09933 77.1904 3.74546 64.0723C8.59025 50.9542 12.8764 41.4766 35.2865 34.3328Z" fill="#E0ECFA"/>
</svg>
