<svg width="89" height="125" viewBox="0 0 89 125" fill="none" xmlns="http://www.w3.org/2000/svg">
<circle r="10.5416" transform="matrix(-0.816252 0.577695 0.577695 0.816252 14.6945 38.6734)" fill="#F6F2E1"/>
<ellipse rx="5.92968" ry="6.58853" transform="matrix(-0.816252 0.577695 0.577695 0.816252 30.4476 26.7171)" fill="#F6F2E1"/>
<ellipse rx="4.9414" ry="5.60025" transform="matrix(-0.816252 0.577695 0.577695 0.816252 45.0882 24.0235)" fill="#F6F2E1"/>
<ellipse rx="4.28254" ry="4.9414" transform="matrix(-0.816252 0.577695 0.577695 0.816252 57.1846 25.1483)" fill="#F6F2E1"/>
<ellipse rx="3.62369" ry="4.28254" transform="matrix(-0.816252 0.577695 0.577695 0.816252 67.734 29.7896)" fill="#F6F2E1"/>
<path d="M55.5012 33.6043C37.5731 27.8893 23.1258 46.0244 22.0919 54.8279C21.058 63.6313 24.529 66.825 28.8067 69.4476C31.2883 70.9691 37.8212 74.7716 42.4918 75.0983C47.1625 75.4249 55.9188 76.7344 55.0522 92.8453C54.1856 108.956 63.5116 114.302 68.2829 114.961C71.882 115.104 80.6961 113.682 87.1595 106.848C95.2386 98.3048 91.887 76.4619 87.0422 63.3438C82.1974 50.2257 77.9112 40.7481 55.5012 33.6043Z" fill="#F6F2E1"/>
</svg>
